<svg width="261" height="74" viewBox="0 0 261 74" fill="none" xmlns="http://www.w3.org/2000/svg">
<g filter="url(#filter0_d_34_75)">
<path d="M28.576 13.048H26.976C24.2027 13.048 21.6213 13.3893 19.232 14.072C16.8427 14.712 14.6667 15.8853 12.704 17.592C10.7413 19.2987 9.16267 21.7093 7.968 24.824C6.816 27.896 6.24 31.7787 6.24 36.472C6.24 37.8373 6.26133 38.8827 6.304 39.608C6.56 44.2587 7.15733 48.0773 8.096 51.064C9.07733 54.0507 10.2933 56.312 11.744 57.848C13.1947 59.3413 14.7947 60.344 16.544 60.856C18.2933 61.4107 20.2987 61.688 22.56 61.688C23.2853 61.688 24.3733 61.6453 25.824 61.56C26.3787 61.5173 26.9333 61.496 27.488 61.496L27.36 56.76L26.656 56.824C24.9493 57.08 23.648 57.208 22.752 57.208C21.472 57.208 20.32 56.9947 19.296 56.568C18.3147 56.1413 17.376 55.352 16.48 54.2C15.6267 53.0053 14.9013 51.2987 14.304 49.08C13.7493 46.8613 13.3867 44.024 13.216 40.568C13.1307 39.4587 13.088 38.6267 13.088 38.072C13.088 34.7013 13.472 31.9707 14.24 29.88C15.008 27.7893 15.9893 26.232 17.184 25.208C18.4213 24.184 19.7227 23.5227 21.088 23.224C22.4533 22.8827 23.9253 22.712 25.504 22.712C25.9307 22.712 26.3573 22.712 26.784 22.712C27.3387 22.7547 27.6587 22.776 27.744 22.776L28.576 13.048ZM54.3005 60.216C53.2765 50.36 52.5725 42.5733 52.1885 36.856C51.8045 31.096 51.5912 27.32 51.5485 25.528L46.7485 25.912C46.8338 29.496 46.9405 33.5493 47.0685 38.072C47.2392 42.552 47.4312 46.8187 47.6445 50.872C46.8338 51.9387 45.9592 52.792 45.0205 53.432C44.0818 54.072 43.1858 54.392 42.3325 54.392C41.3938 54.392 40.6258 53.9867 40.0285 53.176C39.4312 52.3227 39.1325 51.0213 39.1325 49.272V48.952C39.1325 48.6533 39.2178 44.088 39.3885 35.256C39.6018 26.424 39.7085 21.624 39.7085 20.856L33.1165 21.304C33.0738 23.8213 33.0525 27.2987 33.0525 31.736C33.0525 35.96 33.0738 39.6933 33.1165 42.936C33.1592 46.1787 33.2018 48.376 33.2445 49.528C33.2872 53.0693 33.8632 55.6507 34.9725 57.272C36.0818 58.8507 37.5325 59.64 39.3245 59.64C40.6898 59.64 42.1192 59.256 43.6125 58.488C45.1485 57.6773 46.5778 56.632 47.9005 55.352C48.0712 57.8267 48.1992 59.7467 48.2845 61.112L54.3005 60.216ZM82.8665 61.176C80.8612 60.152 79.7305 57.8053 79.4745 54.136C79.4745 54.136 79.4745 54.072 79.4745 53.944C79.4318 53.432 79.4105 52.9413 79.4105 52.472C79.4105 50.168 79.4318 47.0107 79.4745 43C79.5172 38.9467 79.5812 34.424 79.6665 29.432C79.7518 24.3973 79.8372 19.6613 79.9225 15.224C80.0078 10.744 80.1145 7.24533 80.2425 4.728H73.2025L73.3305 10.68C73.3732 15.1173 73.4372 19.4907 73.5225 23.8C68.4878 24.568 64.7758 26.36 62.3865 29.176C59.9972 31.9493 58.8025 36.0667 58.8025 41.528C58.8025 42.424 58.8238 43.1067 58.8665 43.576C58.9945 46.52 59.4212 49.016 60.1465 51.064C60.8718 53.0693 61.8105 54.6693 62.9625 55.864C64.1572 57.016 65.4798 57.8267 66.9305 58.296C68.4238 58.7653 70.0665 59 71.8585 59C72.9678 59 74.0558 58.936 75.1225 58.808C75.9332 61.24 77.3625 62.9893 79.4105 64.056L82.8665 61.176ZM74.3545 55.032C73.7145 55.16 73.0105 55.224 72.2425 55.224C71.3038 55.224 70.4078 55.0747 69.5545 54.776C68.7012 54.4773 67.9118 53.9653 67.1865 53.24C66.4612 52.472 65.8638 51.448 65.3945 50.168C64.9678 48.8453 64.7332 47.224 64.6905 45.304V44.28C64.6905 39.544 65.4372 36.1947 66.9305 34.232C68.4238 32.2267 70.6638 31.16 73.6505 31.032C73.6932 32.184 73.7358 34.3387 73.7785 37.496C73.8638 40.6533 73.9278 43.128 73.9705 44.92C74.0132 46.712 74.0772 49.4 74.1625 52.984C74.2052 53.2827 74.2478 53.624 74.2905 54.008C74.2905 54.392 74.3118 54.7333 74.3545 55.032ZM111.429 61.176C109.424 60.152 108.293 57.8053 108.037 54.136C108.037 54.136 108.037 54.072 108.037 53.944C107.994 53.432 107.973 52.9413 107.973 52.472C107.973 50.168 107.994 47.0107 108.037 43C108.08 38.9467 108.144 34.424 108.229 29.432C108.314 24.3973 108.4 19.6613 108.485 15.224C108.57 10.744 108.677 7.24533 108.805 4.728H101.765L101.893 10.68C101.936 15.1173 102 19.4907 102.085 23.8C97.0503 24.568 93.3383 26.36 90.949 29.176C88.5597 31.9493 87.365 36.0667 87.365 41.528C87.365 42.424 87.3863 43.1067 87.429 43.576C87.557 46.52 87.9837 49.016 88.709 51.064C89.4343 53.0693 90.373 54.6693 91.525 55.864C92.7197 57.016 94.0423 57.8267 95.493 58.296C96.9863 58.7653 98.629 59 100.421 59C101.53 59 102.618 58.936 103.685 58.808C104.496 61.24 105.925 62.9893 107.973 64.056L111.429 61.176ZM102.917 55.032C102.277 55.16 101.573 55.224 100.805 55.224C99.8663 55.224 98.9703 55.0747 98.117 54.776C97.2637 54.4773 96.4743 53.9653 95.749 53.24C95.0237 52.472 94.4263 51.448 93.957 50.168C93.5303 48.8453 93.2957 47.224 93.253 45.304V44.28C93.253 39.544 93.9997 36.1947 95.493 34.232C96.9863 32.2267 99.2263 31.16 102.213 31.032C102.256 32.184 102.298 34.3387 102.341 37.496C102.426 40.6533 102.49 43.128 102.533 44.92C102.576 46.712 102.64 49.4 102.725 52.984C102.768 53.2827 102.81 53.624 102.853 54.008C102.853 54.392 102.874 54.7333 102.917 55.032ZM123.16 7.992L117.784 7.864C117.357 16.8667 117.016 24.6533 116.76 31.224C116.504 37.7947 116.312 42.9573 116.184 46.712C116.098 50.424 116.034 53.176 115.992 54.968C115.949 56.76 115.928 57.9547 115.928 58.552V58.68L121.944 58.616C121.944 58.1893 121.965 56.8453 122.008 54.584C122.05 53.0907 122.114 49.6133 122.2 44.152C122.285 38.6907 122.37 33.784 122.456 29.432C122.541 25.0373 122.648 20.8773 122.776 16.952C122.904 13.0267 123.032 10.04 123.16 7.992ZM151.871 51.128C151.871 48.9093 151.252 47.0533 150.015 45.56C148.82 44.024 147.092 43.256 144.831 43.256H144.255C142.378 43.384 140.884 44.152 139.775 45.56C138.666 46.9253 138.111 48.504 138.111 50.296C138.111 51.1493 138.282 52.0453 138.623 52.984L143.807 52.664C143.636 52.1093 143.551 51.512 143.551 50.872C143.551 50.104 143.722 49.5067 144.063 49.08C144.404 48.6107 144.831 48.376 145.343 48.376C145.855 48.376 146.303 48.6533 146.687 49.208C147.114 49.7627 147.327 50.552 147.327 51.576C147.327 52.088 147.22 52.7707 147.007 53.624C146.666 55.16 145.94 56.376 144.831 57.272C143.764 58.168 142.57 58.616 141.247 58.616C140.052 58.616 138.943 58.2533 137.919 57.528C136.938 56.76 136.17 55.6507 135.615 54.2C134.292 50.6587 133.631 46.84 133.631 42.744C133.631 41.8053 133.652 41.1013 133.695 40.632L150.271 40.888C150.783 36.92 151.039 33.8907 151.039 31.8C151.039 28.0453 150.335 25.272 148.927 23.48C147.519 21.6453 145.13 20.728 141.759 20.728C139.455 20.728 137.407 21.304 135.615 22.456C133.823 23.608 132.33 25.1867 131.135 27.192C129.94 29.1547 129.044 31.3947 128.447 33.912C127.892 36.3867 127.615 38.9893 127.615 41.72C127.615 44.408 127.892 47.032 128.447 49.592C129.044 52.1093 129.919 54.392 131.071 56.44C132.223 58.4453 133.652 60.024 135.359 61.176C137.066 62.3707 138.986 62.968 141.119 62.968C142.783 62.9253 144.298 62.5413 145.663 61.816C147.028 61.1333 148.159 60.216 149.055 59.064C149.994 57.912 150.698 56.6533 151.167 55.288C151.636 53.88 151.871 52.4933 151.871 51.128ZM144.959 32.76C144.959 33.9547 144.831 35.32 144.575 36.856L134.079 37.048C134.463 34.8293 135.082 32.7173 135.935 30.712C136.532 29.304 137.3 28.1947 138.239 27.384C139.178 26.5733 140.138 26.168 141.119 26.168C142.228 26.168 143.146 26.744 143.871 27.896C144.596 29.0053 144.959 30.6267 144.959 32.76ZM176.141 30.52C176.141 27.96 175.608 25.8907 174.541 24.312C173.517 22.6907 171.768 21.88 169.293 21.88L169.101 21.944C166.157 21.944 163.81 22.9467 162.061 24.952C160.354 26.9573 159.501 29.4107 159.501 32.312C159.501 33.464 159.672 34.68 160.013 35.96C160.354 37.24 160.973 38.4347 161.869 39.544C162.765 40.6107 164.024 41.8907 165.645 43.384C167.352 44.92 168.61 46.2427 169.421 47.352C170.274 48.4613 170.701 49.6773 170.701 51V51.32C170.573 53.0693 170.125 54.392 169.357 55.288C168.589 56.184 167.672 56.632 166.605 56.632C165.88 56.632 165.154 56.44 164.429 56.056C163.746 55.6293 163.17 55.0747 162.701 54.392C162.189 53.7093 161.933 53.0053 161.933 52.28C161.933 51.768 162.061 51.3627 162.317 51.064C162.616 50.7227 162.957 50.552 163.341 50.552C163.768 50.552 164.152 50.7653 164.493 51.192C164.877 51.576 165.133 52.152 165.261 52.92L167.885 51.192C167.288 49.144 166.477 47.6293 165.453 46.648C164.429 45.6667 163.32 45.176 162.125 45.176C160.632 45.176 159.288 45.8373 158.093 47.16C156.941 48.4827 156.365 50.0613 156.365 51.896V52.408C156.536 54.7973 157.538 56.9307 159.373 58.808C161.208 60.6427 163.597 61.5813 166.541 61.624H166.797C169.869 61.624 172.173 60.6853 173.709 58.808C175.245 56.888 176.013 54.6053 176.013 51.96C176.013 49.656 175.437 47.6507 174.285 45.944C173.858 45.2613 173.24 44.4933 172.429 43.64C171.661 42.744 170.658 41.6773 169.421 40.44C168.44 39.416 167.608 38.5413 166.925 37.816C166.242 37.048 165.709 36.3867 165.325 35.832C164.6 34.7227 164.237 33.592 164.237 32.44C164.237 31.288 164.578 30.328 165.261 29.56C165.944 28.792 166.904 28.3867 168.141 28.344H168.269C169.208 28.344 169.869 28.6427 170.253 29.24C170.68 29.7947 170.893 30.6267 170.893 31.736C170.893 32.9307 170.744 34.1893 170.445 35.512L175.501 36.088C175.928 34.0827 176.141 32.2267 176.141 30.52ZM203.847 25.912C203.847 23.5653 203.826 22.1787 203.783 21.752L196.615 22.072C196.999 31.8427 197.276 39.3093 197.447 44.472C197.66 49.6347 197.831 53.7733 197.959 56.888C198.087 59.96 198.172 62.0293 198.215 63.096C198.3 64.2053 198.343 64.8667 198.343 65.08L203.271 65.016C203.314 62.9253 203.378 59.7893 203.463 55.608C203.548 51.4267 203.612 47.9493 203.655 45.176C203.698 42.36 203.74 38.968 203.783 35C203.826 31.032 203.847 28.0027 203.847 25.912ZM228.847 37.368C228.847 34.2533 228.313 31.992 227.247 30.584C226.18 29.1333 224.751 28.408 222.958 28.408C221.593 28.408 220.164 28.7707 218.671 29.496C217.177 30.1787 215.769 31.096 214.447 32.248C214.447 30.712 214.404 28.792 214.319 26.488L208.303 27.064C208.687 34.7867 208.943 41.3787 209.071 46.84C209.241 52.2587 209.327 56.44 209.327 59.384C209.327 60.4933 209.327 61.304 209.327 61.816L214.127 61.688C214.255 58.4453 214.34 54.6053 214.383 50.168C214.468 45.7307 214.51 41.592 214.51 37.752C215.407 36.6 216.367 35.6827 217.391 35C218.457 34.3173 219.396 33.976 220.207 33.976C221.06 33.976 221.721 34.3173 222.191 35C222.703 35.6827 222.958 36.7067 222.958 38.072C222.958 38.1147 222.958 38.264 222.958 38.52C222.916 38.8187 222.895 38.9893 222.895 39.032C222.809 40.2267 222.596 42.872 222.255 46.968C221.956 51.064 221.487 57.08 220.847 65.016L227.503 64.888C227.759 61.56 227.951 58.424 228.079 55.48C228.249 52.4933 228.399 49.6347 228.527 46.904C228.655 44.1307 228.74 42.2107 228.783 41.144C228.825 40.0773 228.847 39.3093 228.847 38.84V37.368ZM254.551 60.216C253.527 50.36 252.823 42.5733 252.439 36.856C252.055 31.096 251.841 27.32 251.799 25.528L246.999 25.912C247.084 29.496 247.191 33.5493 247.319 38.072C247.489 42.552 247.681 46.8187 247.895 50.872C247.084 51.9387 246.209 52.792 245.271 53.432C244.332 54.072 243.436 54.392 242.583 54.392C241.644 54.392 240.876 53.9867 240.279 53.176C239.681 52.3227 239.383 51.0213 239.383 49.272V48.952C239.383 48.6533 239.468 44.088 239.639 35.256C239.852 26.424 239.959 21.624 239.959 20.856L233.367 21.304C233.324 23.8213 233.303 27.2987 233.303 31.736C233.303 35.96 233.324 39.6933 233.367 42.936C233.409 46.1787 233.452 48.376 233.495 49.528C233.537 53.0693 234.113 55.6507 235.223 57.272C236.332 58.8507 237.783 59.64 239.575 59.64C240.94 59.64 242.369 59.256 243.863 58.488C245.399 57.6773 246.828 56.632 248.151 55.352C248.321 57.8267 248.449 59.7467 248.535 61.112L254.551 60.216Z" fill="white"/>
</g>
<defs>
<filter id="filter0_d_34_75" x="0.240005" y="0.727997" width="260.31" height="72.352" filterUnits="userSpaceOnUse" color-interpolation-filters="sRGB">
<feFlood flood-opacity="0" result="BackgroundImageFix"/>
<feColorMatrix in="SourceAlpha" type="matrix" values="0 0 0 0 0 0 0 0 0 0 0 0 0 0 0 0 0 0 127 0" result="hardAlpha"/>
<feOffset dy="2"/>
<feGaussianBlur stdDeviation="3"/>
<feComposite in2="hardAlpha" operator="out"/>
<feColorMatrix type="matrix" values="0 0 0 0 0.819608 0 0 0 0 0.121569 0 0 0 0 0.294118 0 0 0 1 0"/>
<feBlend mode="normal" in2="BackgroundImageFix" result="effect1_dropShadow_34_75"/>
<feBlend mode="normal" in="SourceGraphic" in2="effect1_dropShadow_34_75" result="shape"/>
</filter>
</defs>
</svg>
