<svg width="1440" height="941" viewBox="0 0 1440 941" fill="none" xmlns="http://www.w3.org/2000/svg">
<g filter="url(#filter0_d_34_77)">
<path opacity="0.7" d="M4.0581 189.875C4.0581 190.531 3.24028 191.187 2.42242 191.187C1.60457 191.187 0.786682 190.531 0.786682 189.875C0.786682 189.219 1.60457 188.563 2.42242 188.563C3.24028 187.907 4.0581 188.563 4.0581 189.875Z" fill="white"/>
<path opacity="0.7" d="M938.862 215.468C938.862 216.124 938.044 216.78 937.226 216.78C936.409 216.78 935.591 216.124 935.591 215.468C935.591 214.812 936.409 214.156 937.226 214.156C938.044 214.156 938.862 214.812 938.862 215.468Z" fill="white"/>
<path opacity="0.7" d="M25.3264 111.784C25.3264 112.44 24.5085 113.096 23.6907 113.096C22.8728 113.096 22.0549 112.44 22.0549 111.784C22.0549 111.127 22.8728 110.471 23.6907 110.471C24.5085 110.471 25.3264 111.127 25.3264 111.784Z" fill="white"/>
<path opacity="0.7" d="M22.0525 155.75C22.0525 156.406 21.2346 157.062 20.4167 157.062C19.5989 157.062 18.781 156.406 18.781 155.75C18.781 155.094 19.5989 154.438 20.4167 154.438C21.2346 154.438 22.0525 155.094 22.0525 155.75Z" fill="white"/>
<path opacity="0.7" d="M105.471 235.811C105.471 237.123 103.835 238.435 102.2 238.435C100.564 238.435 98.9283 237.123 98.9283 235.811C98.9283 234.499 100.564 233.187 102.2 233.187C104.653 233.187 105.471 234.499 105.471 235.811Z" fill="white"/>
<path opacity="0.7" d="M647.704 1.53465C647.704 2.19037 646.886 2.84607 646.068 2.84607C645.251 2.84607 644.433 2.19037 644.433 1.53465C644.433 0.878929 645.251 0.223206 646.068 0.223206C646.886 0.223206 647.704 0.223211 647.704 1.53465Z" fill="white"/>
<path opacity="0.7" d="M436.702 357.88C436.702 358.537 435.884 359.193 435.066 359.193C434.248 359.193 433.43 358.537 433.43 357.88C433.43 357.224 434.248 356.568 435.066 356.568C435.884 356.568 436.702 357.224 436.702 357.88Z" fill="white"/>
<path opacity="0.7" d="M23.6907 292.248C23.6907 294.217 21.2372 296.186 18.7837 296.186C16.3302 296.186 13.8766 294.217 13.8766 292.248C13.8766 290.28 16.3302 288.311 18.7837 288.311C21.2372 288.967 23.6907 290.28 23.6907 292.248Z" fill="white"/>
<path opacity="0.7" d="M767.928 185.281C767.928 185.937 767.111 186.593 766.293 186.593C765.475 186.593 764.657 185.937 764.657 185.281C764.657 184.625 765.475 183.969 766.293 183.969C767.111 183.969 767.928 184.625 767.928 185.281Z" fill="white"/>
<path opacity="0.7" d="M817 327.684C817 328.341 816.182 328.997 815.364 328.997C814.546 328.997 813.729 328.341 813.729 327.684C813.729 327.028 814.546 326.372 815.364 326.372C816.182 326.372 817 327.028 817 327.684Z" fill="white"/>
<path opacity="0.7" d="M570.009 319.153C570.009 319.809 569.191 320.464 568.373 320.464C567.556 320.464 566.738 319.809 566.738 319.153C566.738 318.497 567.556 317.841 568.373 317.841C569.191 317.841 570.009 318.497 570.009 319.153Z" fill="white"/>
<path opacity="0.7" d="M914.326 262.061C914.326 262.717 913.508 263.373 912.69 263.373C911.872 263.373 911.054 262.717 911.054 262.061C911.054 261.405 911.872 260.749 912.69 260.749C913.508 260.093 914.326 260.749 914.326 262.061Z" fill="white"/>
<path opacity="0.7" d="M774.475 273.217C774.475 274.529 772.84 275.842 771.204 275.842C769.568 275.842 767.932 274.529 767.932 273.217C767.932 271.904 769.568 270.592 771.204 270.592C772.84 270.592 774.475 271.904 774.475 273.217Z" fill="white"/>
<path opacity="0.7" d="M718.856 139.345C718.856 140.657 717.22 141.969 715.585 141.969C713.949 141.969 712.313 140.657 712.313 139.345C712.313 138.032 713.949 136.72 715.585 136.72C717.22 136.72 718.856 138.032 718.856 139.345Z" fill="white"/>
<path opacity="0.7" d="M773.656 342.122C773.656 342.778 772.838 343.434 772.02 343.434C771.203 343.434 770.385 342.778 770.385 342.122C770.385 341.466 771.203 340.81 772.02 340.81C772.838 340.81 773.656 341.466 773.656 342.122Z" fill="white"/>
<path opacity="0.7" d="M807.184 64.5336C807.184 65.1893 806.366 65.8451 805.548 65.8451C804.73 65.8451 803.913 65.1893 803.913 64.5336C803.913 63.8779 804.73 63.2222 805.548 63.2222C806.366 63.2222 807.184 63.8779 807.184 64.5336Z" fill="white"/>
<path opacity="0.7" d="M637.071 120.97C637.071 122.283 635.435 123.595 633.8 123.595C632.164 123.595 630.528 122.283 630.528 120.97C630.528 119.658 632.164 118.345 633.8 118.345C635.435 118.345 637.071 119.658 637.071 120.97Z" fill="white"/>
<path opacity="0.7" d="M594.544 223.343C594.544 223.999 593.726 224.655 592.908 224.655C592.091 224.655 591.273 223.999 591.273 223.343C591.273 222.687 592.091 222.031 592.908 222.031C593.726 222.031 594.544 222.687 594.544 223.343Z" fill="white"/>
<path opacity="0.7" d="M342.651 191.187C342.651 193.156 340.197 195.125 337.744 195.125C335.29 195.125 332.836 193.156 332.836 191.187C332.836 189.219 335.29 187.25 337.744 187.25C340.197 187.906 342.651 189.219 342.651 191.187Z" fill="white"/>
<path opacity="0.7" d="M285.4 185.281C285.4 185.937 284.582 186.593 283.764 186.593C282.947 186.593 282.129 185.937 282.129 185.281C282.129 184.625 282.947 183.969 283.764 183.969C284.582 183.969 285.4 184.625 285.4 185.281Z" fill="white"/>
<path opacity="0.7" d="M184.806 29.0975C184.806 29.7535 183.989 30.4096 183.171 30.4096C182.353 30.4096 181.535 29.7535 181.535 29.0975C181.535 28.4414 182.353 27.7854 183.171 27.7854C183.989 27.1293 184.806 27.7854 184.806 29.0975Z" fill="white"/>
<path opacity="0.7" d="M335.286 327.684C335.286 328.341 334.469 328.997 333.651 328.997C332.833 328.997 332.015 328.341 332.015 327.684C332.015 327.028 332.833 326.372 333.651 326.372C334.469 326.372 335.286 327.028 335.286 327.684Z" fill="white"/>
<path opacity="0.7" d="M240.418 295.529C240.418 296.185 239.601 296.841 238.783 296.841C237.965 296.841 237.147 296.185 237.147 295.529C237.147 294.873 237.965 294.217 238.783 294.217C239.601 294.217 240.418 294.873 240.418 295.529Z" fill="white"/>
<path opacity="0.7" d="M457.148 349.34C457.148 349.996 456.33 350.652 455.513 350.652C454.695 350.652 453.877 349.996 453.877 349.34C453.877 348.683 454.695 348.027 455.513 348.027C456.33 348.027 457.148 348.683 457.148 349.34Z" fill="white"/>
<path opacity="0.7" d="M196.253 264.028C196.253 264.684 195.435 265.341 194.617 265.341C193.799 265.341 192.982 264.684 192.982 264.028C192.982 263.372 193.799 262.716 194.617 262.716C195.435 262.06 196.253 262.716 196.253 264.028Z" fill="white"/>
<path opacity="0.7" d="M457.148 155.75C457.148 156.406 456.33 157.062 455.513 157.062C454.695 157.062 453.877 156.406 453.877 155.75C453.877 155.094 454.695 154.438 455.513 154.438C456.33 154.438 457.148 155.094 457.148 155.75Z" fill="white"/>
<path opacity="0.7" d="M273.132 120.97C273.132 121.627 272.314 122.283 271.496 122.283C270.678 122.283 269.861 121.627 269.861 120.97C269.861 120.314 270.678 119.658 271.496 119.658C272.314 119.658 273.132 120.314 273.132 120.97Z" fill="white"/>
<path opacity="0.7" d="M71.127 191.187C71.127 192.5 69.4913 193.812 67.8556 193.812C66.22 193.812 64.5843 192.5 64.5843 191.187C64.5843 189.875 66.22 188.562 67.8556 188.562C69.4913 188.562 71.127 189.875 71.127 191.187Z" fill="white"/>
<path opacity="0.7" d="M104.657 155.751C104.657 157.064 103.021 158.376 101.385 158.376C99.7495 158.376 98.1138 157.064 98.1138 155.751C98.1138 154.439 99.7495 153.126 101.385 153.126C103.021 153.126 104.657 154.439 104.657 155.751Z" fill="white"/>
<path opacity="0.7" d="M77.6692 331.622C77.6692 332.934 76.0335 334.246 74.3978 334.246C72.7621 334.246 71.1264 332.934 71.1264 331.622C71.1264 330.309 72.7621 328.997 74.3978 328.997C76.0335 328.997 77.6692 330.309 77.6692 331.622Z" fill="white"/>
<path opacity="0.7" d="M236.326 139.345C236.326 140.657 234.691 141.969 233.055 141.969C231.419 141.969 229.783 140.657 229.783 139.345C229.783 138.032 231.419 136.72 233.055 136.72C234.691 136.72 236.326 138.032 236.326 139.345Z" fill="white"/>
<path opacity="0.7" d="M165.174 315.871C165.174 317.184 164.356 317.84 162.72 317.84C161.085 317.84 160.267 317.184 160.267 315.871C160.267 314.559 161.085 313.903 162.72 313.903C164.356 313.903 165.174 314.559 165.174 315.871Z" fill="white"/>
<path opacity="0.7" d="M403.167 240.405C403.167 242.374 400.714 244.342 398.26 244.342C395.807 244.342 393.353 242.374 393.353 240.405C393.353 238.436 395.807 236.468 398.26 236.468C401.532 236.468 403.167 237.78 403.167 240.405Z" fill="white"/>
<path opacity="0.7" d="M170.085 106.533C170.085 107.846 169.267 108.502 167.632 108.502C165.996 108.502 165.178 107.846 165.178 106.533C165.178 105.221 165.996 104.565 167.632 104.565C168.449 104.565 170.085 105.221 170.085 106.533Z" fill="white"/>
<path opacity="0.7" d="M126.735 30.4095C126.735 31.0652 125.917 31.7209 125.099 31.7209C124.281 31.7209 123.463 31.0652 123.463 30.4095C123.463 29.7538 124.281 29.0981 125.099 29.0981C125.917 29.0981 126.735 29.7538 126.735 30.4095Z" fill="white"/>
<path opacity="0.7" d="M325.477 64.5336C325.477 65.1893 324.659 65.8451 323.842 65.8451C323.024 65.8451 322.206 65.1893 322.206 64.5336C322.206 63.8779 323.024 63.2222 323.842 63.2222C324.659 63.2222 325.477 63.8779 325.477 64.5336Z" fill="white"/>
<path opacity="0.7" d="M405.626 57.973C406.53 57.973 407.262 57.3853 407.262 56.6603C407.262 55.9353 406.53 55.3476 405.626 55.3476C404.723 55.3476 403.991 55.9353 403.991 56.6603C403.991 57.3853 404.723 57.973 405.626 57.973Z" fill="white"/>
<path opacity="0.7" d="M264.136 61.9083C264.136 63.2204 262.501 64.5325 260.865 64.5325C259.229 64.5325 257.594 63.2204 257.594 61.9083C257.594 60.5961 259.229 59.284 260.865 59.284C263.319 59.284 264.136 60.5961 264.136 61.9083Z" fill="white"/>
<path opacity="0.7" d="M209.339 27.1279C209.339 28.44 207.703 29.7521 206.067 29.7521C204.432 29.7521 202.796 28.44 202.796 27.1279C202.796 25.8158 204.432 24.5037 206.067 24.5037C208.521 24.5037 209.339 25.1597 209.339 27.1279Z" fill="white"/>
<path opacity="0.7" d="M123.466 59.9404C123.466 61.2525 122.648 61.9086 121.012 61.9086C119.377 61.9086 118.559 61.2525 118.559 59.9404C118.559 58.6283 119.377 57.9723 121.012 57.9723C121.83 57.9723 123.466 58.6283 123.466 59.9404Z" fill="white"/>
<path opacity="0.7" d="M269.863 15.3159C269.863 16.628 269.045 17.2841 267.409 17.2841C265.774 17.2841 264.956 16.628 264.956 15.3159C264.956 14.0038 265.774 13.3477 267.409 13.3477C268.227 13.3477 269.863 14.0038 269.863 15.3159Z" fill="white"/>
<path opacity="0.7" d="M67.8508 51.4093C67.8508 53.378 65.3972 55.3467 62.9437 55.3467C60.4902 55.3467 58.0367 53.378 58.0367 51.4093C58.0367 49.4406 60.4902 47.4719 62.9437 47.4719C66.2151 47.4719 67.8508 49.4406 67.8508 51.4093Z" fill="white"/>
<path opacity="0.7" d="M308.299 275.841C308.299 276.497 307.481 277.153 306.663 277.153C305.845 277.153 305.028 276.497 305.028 275.841C305.028 275.185 305.845 274.529 306.663 274.529C307.481 274.529 308.299 275.185 308.299 275.841Z" fill="white"/>
<path opacity="0.7" d="M132.46 345.403C132.46 346.715 131.642 347.371 130.007 347.371C128.371 347.371 127.553 346.715 127.553 345.403C127.553 344.09 128.371 343.434 130.007 343.434C131.642 343.434 132.46 344.09 132.46 345.403Z" fill="white"/>
<path opacity="0.7" d="M360.645 114.408C360.645 116.377 358.191 118.346 355.738 118.346C353.284 118.346 350.831 116.377 350.831 114.408C350.831 112.44 353.284 110.471 355.738 110.471C358.191 110.471 360.645 112.44 360.645 114.408Z" fill="white"/>
<path opacity="0.7" d="M406.444 54.0337C406.444 55.3458 404.808 56.6579 403.172 56.6579C401.537 56.6579 399.901 55.3458 399.901 54.0337C399.901 52.7216 401.537 51.4094 403.172 51.4094C405.626 51.4094 406.444 52.7216 406.444 54.0337Z" fill="white"/>
<path opacity="0.7" d="M435.883 128.845C435.883 130.157 434.248 131.47 432.612 131.47C430.976 131.47 429.34 130.157 429.34 128.845C429.34 127.532 430.976 126.22 432.612 126.22C434.248 126.22 435.883 127.532 435.883 128.845Z" fill="white"/>
<path opacity="0.7" d="M491.497 141.969C491.497 143.281 490.68 143.938 489.044 143.938C487.408 143.938 486.59 143.281 486.59 141.969C486.59 140.657 487.408 140.001 489.044 140.001C489.862 140.001 491.497 141.313 491.497 141.969Z" fill="white"/>
<path opacity="0.7" d="M729.491 65.8467C729.491 65.1906 730.309 64.5345 731.127 64.5345C731.945 64.5345 732.763 65.1906 732.763 65.8467C732.763 66.5027 731.945 67.1588 731.127 67.1588C730.309 67.8148 729.491 67.1588 729.491 65.8467Z" fill="white"/>
<path opacity="0.7" d="M557.745 96.0338C557.745 95.3777 558.563 94.7217 559.381 94.7217C560.198 94.7217 561.016 95.3777 561.016 96.0338C561.016 96.6899 560.198 97.3459 559.381 97.3459C558.563 97.3459 557.745 96.6899 557.745 96.0338Z" fill="white"/>
<path opacity="0.7" d="M690.236 187.25C690.236 186.594 691.054 185.938 691.872 185.938C692.69 185.938 693.508 186.594 693.508 187.25C693.508 187.906 692.69 188.562 691.872 188.562C691.054 188.562 690.236 187.906 690.236 187.25Z" fill="white"/>
<path opacity="0.7" d="M722.951 327.684C722.951 326.371 724.587 325.059 726.222 325.059C727.858 325.059 729.494 326.371 729.494 327.684C729.494 328.996 727.858 330.308 726.222 330.308C724.587 330.308 722.951 329.652 722.951 327.684Z" fill="white"/>
<path opacity="0.7" d="M582.28 6.78504C582.28 5.47294 583.915 4.16083 585.551 4.16083C587.187 4.16083 588.822 5.47294 588.822 6.78504C588.822 8.09714 587.187 9.40923 585.551 9.40923C583.915 9.40923 582.28 8.09714 582.28 6.78504Z" fill="white"/>
<path opacity="0.7" d="M502.947 269.28C502.947 267.967 504.583 266.655 506.218 266.655C507.854 266.655 509.49 267.967 509.49 269.28C509.49 270.592 507.854 271.905 506.218 271.905C503.765 271.905 502.947 270.592 502.947 269.28Z" fill="white"/>
<path opacity="0.7" d="M512.763 200.375C512.763 198.407 515.217 196.438 517.67 196.438C520.124 196.438 522.577 198.407 522.577 200.375C522.577 202.344 520.124 204.313 517.67 204.313C514.399 203.656 512.763 202.344 512.763 200.375Z" fill="white"/>
<path opacity="0.7" d="M1122.05 189.875C1122.05 191.187 1121.24 191.843 1119.6 191.843C1117.96 191.843 1117.15 191.187 1117.15 189.875C1117.15 188.562 1117.96 187.906 1119.6 187.906C1120.42 187.906 1122.05 188.562 1122.05 189.875Z" fill="white"/>
<path opacity="0.7" d="M1069.72 185.281C1069.72 185.937 1068.9 186.593 1068.08 186.593C1067.26 186.593 1066.45 185.937 1066.45 185.281C1066.45 184.625 1067.26 183.969 1068.08 183.969C1068.9 183.969 1069.72 184.625 1069.72 185.281Z" fill="white"/>
<path opacity="0.7" d="M1222.65 189.875C1222.65 190.531 1221.83 191.187 1221.01 191.187C1220.2 191.187 1219.38 190.531 1219.38 189.875C1219.38 189.219 1220.2 188.563 1221.01 188.563C1221.83 187.907 1222.65 188.563 1222.65 189.875Z" fill="white"/>
<path opacity="0.7" d="M1118.79 327.684C1118.79 328.341 1117.97 328.997 1117.15 328.997C1116.33 328.997 1115.52 328.341 1115.52 327.684C1115.52 327.028 1116.33 326.372 1117.15 326.372C1117.97 326.372 1118.79 327.028 1118.79 327.684Z" fill="white"/>
<path opacity="0.7" d="M1423.84 240.405C1423.84 241.061 1423.02 241.717 1422.21 241.717C1421.39 241.717 1420.57 241.061 1420.57 240.405C1420.57 239.749 1421.39 239.093 1422.21 239.093C1423.02 238.437 1423.84 239.093 1423.84 240.405Z" fill="white"/>
<path opacity="0.7" d="M1240.64 155.75C1240.64 156.406 1239.82 157.062 1239.01 157.062C1238.19 157.062 1237.37 156.406 1237.37 155.75C1237.37 155.094 1238.19 154.438 1239.01 154.438C1239.82 154.438 1240.64 155.094 1240.64 155.75Z" fill="white"/>
<path opacity="0.7" d="M1057.45 120.97C1057.45 121.627 1056.63 122.283 1055.81 122.283C1055 122.283 1054.18 121.627 1054.18 120.97C1054.18 120.314 1055 119.658 1055.81 119.658C1056.63 119.658 1057.45 120.314 1057.45 120.97Z" fill="white"/>
<path opacity="0.7" d="M1027.19 208.905C1027.19 210.217 1026.37 210.874 1024.73 210.874C1023.1 210.874 1022.28 210.217 1022.28 208.905C1022.28 207.593 1023.1 206.937 1024.73 206.937C1025.55 206.937 1027.19 207.593 1027.19 208.905Z" fill="white"/>
<path opacity="0.7" d="M888.974 155.751C888.974 157.064 887.338 158.376 885.702 158.376C884.067 158.376 882.431 157.064 882.431 155.751C882.431 154.439 884.067 153.126 885.702 153.126C887.338 153.126 888.974 154.439 888.974 155.751Z" fill="white"/>
<path opacity="0.7" d="M1020.64 139.345C1020.64 140.657 1019.01 141.969 1017.37 141.969C1015.74 141.969 1014.1 140.657 1014.1 139.345C1014.1 138.032 1015.74 136.72 1017.37 136.72C1019.01 136.72 1020.64 138.032 1020.64 139.345Z" fill="white"/>
<path opacity="0.7" d="M1108.97 64.5336C1108.97 65.1893 1108.16 65.8451 1107.34 65.8451C1106.52 65.8451 1105.7 65.1893 1105.7 64.5336C1105.7 63.8779 1106.52 63.2222 1107.34 63.2222C1108.16 63.2222 1108.97 63.8779 1108.97 64.5336Z" fill="white"/>
<path opacity="0.7" d="M1190.76 56.6603C1190.76 57.3166 1189.94 57.973 1189.12 57.973C1188.3 57.973 1187.49 57.3166 1187.49 56.6603C1187.49 56.0039 1188.3 55.3476 1189.12 55.3476C1189.94 55.3476 1190.76 56.0039 1190.76 56.6603Z" fill="white"/>
<path opacity="0.7" d="M1048.45 61.9083C1048.45 63.2204 1046.82 64.5325 1045.18 64.5325C1043.55 64.5325 1041.91 63.2204 1041.91 61.9083C1041.91 60.5961 1043.55 59.284 1045.18 59.284C1046.82 59.284 1048.45 60.5961 1048.45 61.9083Z" fill="white"/>
<path opacity="0.7" d="M993.656 27.1279C993.656 28.44 992.02 29.7521 990.385 29.7521C988.749 29.7521 987.113 28.44 987.113 27.1279C987.113 25.8158 988.749 24.5037 990.385 24.5037C992.02 24.5037 993.656 25.1597 993.656 27.1279Z" fill="white"/>
<path opacity="0.7" d="M1095.88 224.654C1095.88 225.31 1095.07 225.966 1094.25 225.966C1093.43 225.966 1092.61 225.31 1092.61 224.654C1092.61 223.998 1093.43 223.342 1094.25 223.342C1095.07 222.686 1095.88 223.342 1095.88 224.654Z" fill="white"/>
<path opacity="0.7" d="M611.72 272.56C611.72 273.872 610.084 275.185 608.448 275.185C606.813 275.185 605.177 273.872 605.177 272.56C605.177 271.248 606.813 269.936 608.448 269.936C610.084 269.936 611.72 270.592 611.72 272.56Z" fill="white"/>
<path opacity="0.7" d="M1248.82 331.621C1248.82 332.276 1248 332.932 1247.19 332.932C1246.37 332.932 1245.55 332.276 1245.55 331.621C1245.55 330.965 1246.37 330.309 1247.19 330.309C1248 330.309 1248.82 330.965 1248.82 331.621Z" fill="white"/>
<path opacity="0.7" d="M916.777 345.403C916.777 346.715 915.959 347.371 914.324 347.371C912.688 347.371 911.87 346.715 911.87 345.403C911.87 344.09 912.688 343.434 914.324 343.434C915.959 343.434 916.777 344.09 916.777 345.403Z" fill="white"/>
<path opacity="0.7" d="M1403.4 29.0975C1403.4 29.7535 1402.58 30.4096 1401.76 30.4096C1400.94 30.4096 1400.12 29.7535 1400.12 29.0975C1400.12 28.4414 1400.94 27.7854 1401.76 27.7854C1402.58 27.1293 1403.4 27.7854 1403.4 29.0975Z" fill="white"/>
<path opacity="0.7" d="M1289.72 191.187C1289.72 192.5 1288.08 193.812 1286.45 193.812C1284.81 193.812 1283.17 192.5 1283.17 191.187C1283.17 189.875 1284.81 188.562 1286.45 188.562C1288.08 188.562 1289.72 189.875 1289.72 191.187Z" fill="white"/>
<path opacity="0.7" d="M1323.25 155.751C1323.25 157.064 1321.61 158.376 1319.98 158.376C1318.34 158.376 1316.7 157.064 1316.7 155.751C1316.7 154.439 1318.34 153.126 1319.98 153.126C1322.43 153.126 1323.25 154.439 1323.25 155.751Z" fill="white"/>
<path opacity="0.7" d="M1296.26 331.622C1296.26 332.934 1294.62 334.246 1292.99 334.246C1291.35 334.246 1289.72 332.934 1289.72 331.622C1289.72 330.309 1291.35 328.997 1292.99 328.997C1294.62 328.997 1296.26 330.309 1296.26 331.622Z" fill="white"/>
<path opacity="0.7" d="M1383.77 315.871C1383.77 317.184 1382.95 317.84 1381.31 317.84C1379.68 317.84 1378.86 317.184 1378.86 315.871C1378.86 314.559 1379.68 313.903 1381.31 313.903C1382.95 313.903 1383.77 314.559 1383.77 315.871Z" fill="white"/>
<path opacity="0.7" d="M1388.68 106.533C1388.68 107.846 1387.86 108.502 1386.22 108.502C1384.59 108.502 1383.77 107.846 1383.77 106.533C1383.77 105.221 1384.59 104.565 1386.22 104.565C1387.86 104.565 1388.68 105.221 1388.68 106.533Z" fill="white"/>
<path opacity="0.7" d="M1423.84 589.46C1423.84 590.116 1423.02 590.772 1422.21 590.772C1421.39 590.772 1420.57 590.116 1420.57 589.46C1420.57 588.804 1421.39 588.148 1422.21 588.148C1423.02 587.492 1423.84 588.148 1423.84 589.46Z" fill="white"/>
<path opacity="0.7" d="M1403.4 378.152C1403.4 378.808 1402.58 379.464 1401.76 379.464C1400.94 379.464 1400.12 378.808 1400.12 378.152C1400.12 377.496 1400.94 376.84 1401.76 376.84C1402.58 376.184 1403.4 376.84 1403.4 378.152Z" fill="white"/>
<path opacity="0.7" d="M1289.72 540.241C1289.72 541.553 1288.08 542.865 1286.45 542.865C1284.81 542.865 1283.17 541.553 1283.17 540.241C1283.17 538.929 1284.81 537.617 1286.45 537.617C1288.08 537.617 1289.72 538.929 1289.72 540.241Z" fill="white"/>
<path opacity="0.7" d="M1323.25 504.806C1323.25 506.119 1321.61 507.431 1319.98 507.431C1318.34 507.431 1316.7 506.119 1316.7 504.806C1316.7 503.494 1318.34 502.181 1319.98 502.181C1322.43 502.181 1323.25 503.494 1323.25 504.806Z" fill="white"/>
<path opacity="0.7" d="M1388.68 455.588C1388.68 456.9 1387.86 457.556 1386.22 457.556C1384.59 457.556 1383.77 456.9 1383.77 455.588C1383.77 454.276 1384.59 453.62 1386.22 453.62C1387.86 453.62 1388.68 454.276 1388.68 455.588Z" fill="white"/>
<path opacity="0.7" d="M409.715 296.842C409.715 298.81 407.262 300.779 404.808 300.779C402.355 300.779 399.901 298.81 399.901 296.842C399.901 294.873 402.355 292.904 404.808 292.904C408.079 293.56 409.715 294.873 409.715 296.842Z" fill="white"/>
<g opacity="0.7">
<path opacity="0.7" d="M502.133 3.50403L502.95 17.285L520.943 18.5974L503.768 19.2537L502.133 33.6908L500.497 19.2537L483.322 18.5974L500.497 17.285L502.133 3.50403Z" fill="white"/>
<path opacity="0.7" d="M509.492 12.0354L503.767 17.9415L509.492 24.5039L502.131 19.254L493.953 25.1601L500.496 18.5977L493.953 12.0354L502.131 17.2853L509.492 12.0354Z" fill="white"/>
</g>
<g opacity="0.7">
<path opacity="0.7" d="M316.481 -24.7139L318.117 -10.933L335.292 -9.62054L318.117 -8.96432L316.481 5.47284L314.846 -8.96432L297.671 -9.62054L314.846 -10.933L316.481 -24.7139Z" fill="white"/>
</g>
<g opacity="0.7">
<path opacity="0.7" d="M435.069 337.529L435.887 346.716L448.155 348.028H435.887L435.069 358.528L434.251 348.028H421.984L434.251 346.716L435.069 337.529Z" fill="white"/>
<path opacity="0.7" d="M439.979 343.434L435.89 347.372L439.979 351.965L435.072 348.028L429.347 351.965L434.254 347.372L429.347 343.434L435.072 346.715L439.979 343.434Z" fill="white"/>
</g>
<g opacity="0.7">
<path opacity="0.7" d="M1138.42 299.466L1140.05 312.591L1157.23 314.56H1140.05L1138.42 329.653L1136.78 314.56H1119.61L1136.78 312.591L1138.42 299.466Z" fill="white"/>
<path opacity="0.7" d="M1145.78 307.341L1140.05 313.903L1145.78 320.466L1138.41 315.216L1130.24 320.466L1137.6 313.903L1130.24 307.997L1138.41 312.591L1145.78 307.341Z" fill="white"/>
</g>
<g opacity="0.7">
<path opacity="0.7" d="M996.11 174.782L996.928 184.626L1009.2 185.282L996.928 185.938L996.11 195.782L995.292 185.938L983.025 185.282L995.292 184.626L996.11 174.782Z" fill="white"/>
<path opacity="0.7" d="M1001.02 180.688L996.931 185.281L1001.02 189.875L996.113 185.938L990.388 189.875L995.295 185.281L990.388 181.344L996.113 184.625L1001.02 180.688Z" fill="white"/>
</g>
<g opacity="0.7">
<path opacity="0.7" d="M822.724 235.812L823.542 245.656L835.81 246.312L823.542 246.968L822.724 256.812L821.906 246.968L809.639 246.312L821.906 245.656L822.724 235.812Z" fill="white"/>
<path opacity="0.7" d="M827.634 241.718L823.545 246.311L827.634 250.905L822.727 246.967L817.002 250.905L821.909 246.311L817.002 242.374L822.727 245.655L827.634 241.718Z" fill="white"/>
</g>
<path opacity="0.7" d="M1172.55 700.809C1172.55 699.497 1173.37 698.841 1175 698.841C1176.64 698.841 1177.46 699.497 1177.46 700.809C1177.46 702.122 1176.64 702.778 1175 702.778C1174.19 702.778 1172.55 702.122 1172.55 700.809Z" fill="white"/>
<path opacity="0.7" d="M1072.09 696.446C1072.09 695.79 1072.91 695.134 1073.73 695.134C1074.55 695.134 1075.36 695.79 1075.36 696.446C1075.36 697.102 1074.55 697.758 1073.73 697.758C1072.91 698.414 1072.09 697.758 1072.09 696.446Z" fill="white"/>
<path opacity="0.7" d="M1277.59 599.494C1277.59 598.838 1278.41 598.182 1279.23 598.182C1280.05 598.182 1280.87 598.838 1280.87 599.494C1280.87 600.15 1280.05 600.806 1279.23 600.806C1278.41 600.806 1277.59 600.15 1277.59 599.494Z" fill="white"/>
<path opacity="0.7" d="M140.346 630.674C140.346 630.017 141.163 629.361 141.981 629.361C142.799 629.361 143.617 630.017 143.617 630.674C143.617 631.33 142.799 631.986 141.981 631.986C141.163 631.986 140.346 631.33 140.346 630.674Z" fill="white"/>
<path opacity="0.7" d="M1045.66 773.511C1045.66 772.854 1046.48 772.198 1047.29 772.198C1048.11 772.198 1048.93 772.854 1048.93 773.511C1048.93 774.167 1048.11 774.823 1047.29 774.823C1046.48 774.823 1045.66 774.167 1045.66 773.511Z" fill="white"/>
<path opacity="0.7" d="M1051.86 729.748C1051.86 729.092 1052.68 728.436 1053.49 728.436C1054.31 728.436 1055.13 729.092 1055.13 729.748C1055.13 730.404 1054.31 731.06 1053.49 731.06C1052.68 731.06 1051.86 730.404 1051.86 729.748Z" fill="white"/>
<path opacity="0.7" d="M973.894 646.284C973.894 644.972 975.53 643.659 977.166 643.659C978.802 643.659 980.437 644.972 980.437 646.284C980.437 647.596 978.802 648.908 977.166 648.908C974.712 648.908 973.894 647.596 973.894 646.284Z" fill="white"/>
<path opacity="0.7" d="M1382.18 774.936C1382.18 773.623 1383.82 772.311 1385.45 772.311C1387.09 772.311 1388.73 773.623 1388.73 774.936C1388.73 776.248 1387.09 777.561 1385.45 777.561C1383.82 777.561 1382.18 776.248 1382.18 774.936Z" fill="white"/>
<path opacity="0.7" d="M1270.45 755.665C1270.45 754.353 1272.08 753.04 1273.72 753.04C1275.35 753.04 1276.99 754.353 1276.99 755.665C1276.99 756.977 1275.35 758.289 1273.72 758.289C1272.08 758.289 1270.45 756.977 1270.45 755.665Z" fill="white"/>
<path opacity="0.7" d="M1354.08 582.452C1354.08 581.14 1354.9 580.484 1356.53 580.484C1358.17 580.484 1358.99 581.14 1358.99 582.452C1358.99 583.764 1358.17 584.42 1356.53 584.42C1354.9 584.42 1354.08 583.764 1354.08 582.452Z" fill="white"/>
<path opacity="0.7" d="M1293.3 842.705C1293.3 841.393 1294.12 840.737 1295.75 840.737C1297.39 840.737 1298.2 841.393 1298.2 842.705C1298.2 844.017 1297.39 844.673 1295.75 844.673C1294.12 844.673 1293.3 843.361 1293.3 842.705Z" fill="white"/>
<path opacity="0.7" d="M416.823 856.826C416.823 856.17 417.641 855.514 418.459 855.514C419.277 855.514 420.095 856.17 420.095 856.826C420.095 857.482 419.277 858.138 418.459 858.138C417.641 858.138 416.823 858.138 416.823 856.826Z" fill="white"/>
<path opacity="0.7" d="M1161.68 912.574C1161.68 911.917 1162.5 911.261 1163.32 911.261C1164.14 911.261 1164.95 911.917 1164.95 912.574C1164.95 913.23 1164.14 913.886 1163.32 913.886C1162.5 913.886 1161.68 913.23 1161.68 912.574Z" fill="white"/>
<path opacity="0.7" d="M1095.07 830.843C1095.07 830.187 1095.88 829.531 1096.7 829.531C1097.52 829.531 1098.34 830.187 1098.34 830.843C1098.34 831.499 1097.52 832.154 1096.7 832.154C1095.88 832.154 1095.07 831.499 1095.07 830.843Z" fill="white"/>
<path opacity="0.7" d="M1246.02 544.902C1246.02 544.246 1246.84 543.59 1247.66 543.59C1248.48 543.59 1249.29 544.246 1249.29 544.902C1249.29 545.558 1248.48 546.214 1247.66 546.214C1246.84 546.214 1246.02 545.558 1246.02 544.902Z" fill="white"/>
<path opacity="0.7" d="M503.885 877.734C503.885 876.422 505.521 875.11 507.156 875.11C508.792 875.11 510.428 876.422 510.428 877.734C510.428 879.046 508.792 880.359 507.156 880.359C504.703 880.359 503.885 879.702 503.885 877.734Z" fill="white"/>
<path opacity="0.7" d="M1437.57 607.736C1437.57 606.424 1438.39 605.768 1440.03 605.768C1441.66 605.768 1442.48 606.424 1442.48 607.736C1442.48 609.048 1441.66 609.704 1440.03 609.704C1438.39 609.704 1437.57 609.048 1437.57 607.736Z" fill="white"/>
<path opacity="0.7" d="M1059.32 593.516C1059.32 591.547 1061.77 589.578 1064.22 589.578C1066.68 589.578 1069.13 591.547 1069.13 593.516C1069.13 595.484 1066.68 597.453 1064.22 597.453C1061.77 596.797 1059.32 595.484 1059.32 593.516Z" fill="white"/>
<path opacity="0.7" d="M1201 667.17C1201 666.514 1201.81 665.858 1202.63 665.858C1203.45 665.858 1204.27 666.514 1204.27 667.17C1204.27 667.826 1203.45 668.482 1202.63 668.482C1201.81 669.138 1201 668.482 1201 667.17Z" fill="white"/>
<path opacity="0.7" d="M1107.86 553.408C1107.86 552.752 1108.67 552.096 1109.49 552.096C1110.31 552.096 1111.13 552.752 1111.13 553.408C1111.13 554.064 1110.31 554.72 1109.49 554.72C1108.67 554.72 1107.86 554.064 1107.86 553.408Z" fill="white"/>
<path opacity="0.7" d="M309.022 668.172C309.022 667.516 309.839 666.86 310.657 666.86C311.475 666.86 312.293 667.516 312.293 668.172C312.293 668.828 311.475 669.484 310.657 669.484C309.839 669.484 309.022 668.828 309.022 668.172Z" fill="white"/>
<path opacity="0.7" d="M269.514 523.862C269.514 523.205 270.332 522.549 271.15 522.549C271.968 522.549 272.785 523.205 272.785 523.862C272.785 524.518 271.968 525.174 271.15 525.174C270.332 525.174 269.514 524.518 269.514 523.862Z" fill="white"/>
<path opacity="0.7" d="M515.582 543.005C515.582 542.349 516.399 541.692 517.217 541.692C518.035 541.692 518.853 542.349 518.853 543.005C518.853 543.662 518.035 544.318 517.217 544.318C516.399 544.318 515.582 543.662 515.582 543.005Z" fill="white"/>
<path opacity="0.7" d="M167.944 585.204C167.944 584.548 168.762 583.891 169.58 583.891C170.398 583.891 171.216 584.548 171.216 585.204C171.216 585.86 170.398 586.516 169.58 586.516C168.762 587.172 167.944 586.516 167.944 585.204Z" fill="white"/>
<path opacity="0.7" d="M308.344 580.151C308.344 578.838 309.98 577.526 311.615 577.526C313.251 577.526 314.887 578.838 314.887 580.151C314.887 581.463 313.251 582.776 311.615 582.776C309.98 582.776 308.344 581.463 308.344 580.151Z" fill="white"/>
<path opacity="0.7" d="M354.959 716.223C354.959 714.911 356.594 713.599 358.23 713.599C359.866 713.599 361.502 714.911 361.502 716.223C361.502 717.536 359.866 718.848 358.23 718.848C356.594 718.848 354.959 717.536 354.959 716.223Z" fill="white"/>
<path opacity="0.7" d="M313.758 511.31C313.758 510.654 314.576 509.998 315.394 509.998C316.212 509.998 317.03 510.654 317.03 511.31C317.03 511.966 316.212 512.622 315.394 512.622C314.576 512.622 313.758 511.966 313.758 511.31Z" fill="white"/>
<path opacity="0.7" d="M246.196 873.132C246.196 872.476 247.013 871.82 247.831 871.82C248.649 871.82 249.467 872.476 249.467 873.132C249.467 873.788 248.649 874.445 247.831 874.445C247.013 874.445 246.196 873.788 246.196 873.132Z" fill="white"/>
<path opacity="0.7" d="M261.772 787.057C261.772 786.401 262.59 785.745 263.408 785.745C264.226 785.745 265.044 786.401 265.044 787.057C265.044 787.713 264.226 788.368 263.408 788.368C262.59 788.368 261.772 787.713 261.772 787.057Z" fill="white"/>
<path opacity="0.7" d="M338.819 908.668C338.819 908.012 339.636 907.356 340.454 907.356C341.272 907.356 342.09 908.012 342.09 908.668C342.09 909.324 341.272 909.981 340.454 909.981C339.636 910.637 338.819 909.981 338.819 908.668Z" fill="white"/>
<path opacity="0.7" d="M285.026 929.422C285.026 928.109 286.661 926.797 288.297 926.797C289.933 926.797 291.568 928.109 291.568 929.422C291.568 930.734 289.933 932.046 288.297 932.046C286.661 932.046 285.026 930.734 285.026 929.422Z" fill="white"/>
<path opacity="0.7" d="M435.401 738.091C435.401 736.778 437.037 735.466 438.673 735.466C440.308 735.466 441.944 736.778 441.944 738.091C441.944 739.403 440.308 740.715 438.673 740.715C437.037 740.715 435.401 739.403 435.401 738.091Z" fill="white"/>
<path opacity="0.7" d="M484.695 637.624C484.695 636.968 485.512 636.312 486.33 636.312C487.148 636.312 487.966 636.968 487.966 637.624C487.966 638.28 487.148 638.936 486.33 638.936C485.512 638.936 484.695 638.28 484.695 637.624Z" fill="white"/>
<path opacity="0.7" d="M1387.9 554.336C1387.9 553.024 1388.72 552.368 1390.35 552.368C1391.99 552.368 1392.81 553.024 1392.81 554.336C1392.81 555.648 1391.99 556.304 1390.35 556.304C1388.72 556.304 1387.9 555.648 1387.9 554.336Z" fill="white"/>
<path opacity="0.7" d="M734.078 680.71C734.078 678.742 736.532 676.773 738.985 676.773C741.439 676.773 743.892 678.742 743.892 680.71C743.892 682.679 741.439 684.648 738.985 684.648C736.532 683.991 734.078 682.679 734.078 680.71Z" fill="white"/>
<path opacity="0.7" d="M790.857 688.929C790.857 688.273 791.675 687.617 792.493 687.617C793.311 687.617 794.129 688.273 794.129 688.929C794.129 689.586 793.311 690.242 792.493 690.242C791.675 690.242 790.857 689.586 790.857 688.929Z" fill="white"/>
<path opacity="0.7" d="M880.886 849.217C880.886 848.561 881.704 847.905 882.522 847.905C883.339 847.905 884.157 848.561 884.157 849.217C884.157 849.873 883.339 850.529 882.522 850.529C881.704 851.185 880.886 850.529 880.886 849.217Z" fill="white"/>
<path opacity="0.7" d="M750.536 544.585C750.536 543.929 751.354 543.272 752.172 543.272C752.99 543.272 753.808 543.929 753.808 544.585C753.808 545.241 752.99 545.898 752.172 545.898C751.354 545.898 750.536 545.241 750.536 544.585Z" fill="white"/>
<path opacity="0.7" d="M843.124 580.775C843.124 580.119 843.942 579.462 844.76 579.462C845.578 579.462 846.396 580.119 846.396 580.775C846.396 581.431 845.578 582.088 844.76 582.088C843.942 582.088 843.124 581.431 843.124 580.775Z" fill="white"/>
<path opacity="0.7" d="M630.293 517.718C630.293 517.062 631.111 516.406 631.929 516.406C632.747 516.406 633.564 517.062 633.564 517.718C633.564 518.374 632.747 519.03 631.929 519.03C631.111 519.03 630.293 518.374 630.293 517.718Z" fill="white"/>
<path opacity="0.7" d="M885.118 614.131C885.118 613.475 885.936 612.819 886.754 612.819C887.572 612.819 888.389 613.475 888.389 614.131C888.389 614.787 887.572 615.443 886.754 615.443C885.936 616.099 885.118 615.443 885.118 614.131Z" fill="white"/>
<path opacity="0.7" d="M617.387 711.03C617.387 710.374 618.205 709.718 619.023 709.718C619.84 709.718 620.658 710.374 620.658 711.03C620.658 711.686 619.84 712.342 619.023 712.342C618.205 712.342 617.387 711.686 617.387 711.03Z" fill="white"/>
<path opacity="0.7" d="M798.821 753.677C798.821 753.021 799.638 752.365 800.456 752.365C801.274 752.365 802.092 753.021 802.092 753.677C802.092 754.333 801.274 754.989 800.456 754.989C799.638 754.989 798.821 754.333 798.821 753.677Z" fill="white"/>
<path opacity="0.7" d="M1005.21 692.321C1005.21 691.009 1006.85 689.696 1008.49 689.696C1010.12 689.696 1011.76 691.009 1011.76 692.321C1011.76 693.633 1010.12 694.946 1008.49 694.946C1006.85 694.946 1005.21 693.633 1005.21 692.321Z" fill="white"/>
<path opacity="0.7" d="M969.371 726.264C969.371 724.951 971.006 723.639 972.642 723.639C974.278 723.639 975.913 724.951 975.913 726.264C975.913 727.576 974.278 728.889 972.642 728.889C971.006 728.889 969.371 727.576 969.371 726.264Z" fill="white"/>
<path opacity="0.7" d="M1008.04 551.806C1008.04 550.494 1009.68 549.182 1011.32 549.182C1012.95 549.182 1014.59 550.494 1014.59 551.806C1014.59 553.118 1012.95 554.431 1011.32 554.431C1009.68 554.431 1008.04 553.118 1008.04 551.806Z" fill="white"/>
<path opacity="0.7" d="M836.796 736.981C836.796 735.669 838.432 734.356 840.067 734.356C841.703 734.356 843.339 735.669 843.339 736.981C843.339 738.294 841.703 739.606 840.067 739.606C838.432 739.606 836.796 738.294 836.796 736.981Z" fill="white"/>
<path opacity="0.7" d="M919.616 563.734C919.616 562.422 920.434 561.766 922.07 561.766C923.705 561.766 924.523 562.422 924.523 563.734C924.523 565.046 923.705 565.703 922.07 565.703C920.434 565.703 919.616 565.046 919.616 563.734Z" fill="white"/>
<path opacity="0.7" d="M676.929 628.96C676.929 626.991 679.383 625.022 681.837 625.022C684.29 625.022 686.744 626.991 686.744 628.96C686.744 630.928 684.29 632.897 681.837 632.897C678.565 632.897 676.929 631.585 676.929 628.96Z" fill="white"/>
<path opacity="0.7" d="M900.756 772.561C900.756 771.249 901.574 770.593 903.209 770.593C904.845 770.593 905.663 771.249 905.663 772.561C905.663 773.873 904.845 774.529 903.209 774.529C902.391 774.529 900.756 773.873 900.756 772.561Z" fill="white"/>
<path opacity="0.7" d="M938.97 850.404C938.97 849.748 939.788 849.091 940.606 849.091C941.424 849.091 942.242 849.748 942.242 850.404C942.242 851.06 941.424 851.717 940.606 851.717C939.788 851.717 938.97 851.06 938.97 850.404Z" fill="white"/>
<path opacity="0.7" d="M727.218 893.855C727.218 893.199 728.036 892.543 728.854 892.543C729.671 892.543 730.489 893.199 730.489 893.855C730.489 894.511 729.671 895.168 728.854 895.168C728.036 895.168 727.218 894.511 727.218 893.855Z" fill="white"/>
<path opacity="0.7" d="M742.788 807.779C742.788 807.123 743.606 806.467 744.423 806.467C745.241 806.467 746.059 807.123 746.059 807.779C746.059 808.435 745.241 809.091 744.423 809.091C743.606 809.091 742.788 808.435 742.788 807.779Z" fill="white"/>
<path opacity="0.7" d="M819.841 929.392C819.841 928.736 820.659 928.08 821.477 928.08C822.295 928.08 823.112 928.736 823.112 929.392C823.112 930.048 822.295 930.704 821.477 930.704C820.659 931.36 819.841 930.704 819.841 929.392Z" fill="white"/>
<path opacity="0.7" d="M662.231 810.811C661.328 810.811 660.595 811.399 660.595 812.124C660.595 812.849 661.328 813.436 662.231 813.436C663.134 813.436 663.867 812.849 663.867 812.124C663.867 811.399 663.134 810.811 662.231 810.811Z" fill="white"/>
<path opacity="0.7" d="M803.863 813.111C803.863 811.799 805.499 810.487 807.135 810.487C808.77 810.487 810.406 811.799 810.406 813.111C810.406 814.423 808.77 815.735 807.135 815.735C804.681 815.735 803.863 814.423 803.863 813.111Z" fill="white"/>
<path opacity="0.7" d="M856.264 850.199C856.264 848.887 857.899 847.575 859.535 847.575C861.171 847.575 862.806 848.887 862.806 850.199C862.806 851.511 861.171 852.823 859.535 852.823C857.081 852.823 856.264 852.167 856.264 850.199Z" fill="white"/>
<path opacity="0.7" d="M984.769 900.423C984.769 899.11 986.405 897.798 988.04 897.798C989.676 897.798 991.312 899.11 991.312 900.423C991.312 901.735 989.676 903.047 988.04 903.047C986.405 903.047 984.769 902.391 984.769 900.423Z" fill="white"/>
<path opacity="0.7" d="M896.297 913.006C896.297 911.694 897.115 911.038 898.751 911.038C900.387 911.038 901.205 911.694 901.205 913.006C901.205 914.318 900.387 914.974 898.751 914.974C897.115 914.974 896.297 913.662 896.297 913.006Z" fill="white"/>
<path opacity="0.7" d="M944.202 821.092C944.202 819.78 945.02 819.124 946.655 819.124C948.291 819.124 949.109 819.78 949.109 821.092C949.109 822.404 948.291 823.06 946.655 823.06C945.838 823.06 944.202 822.404 944.202 821.092Z" fill="white"/>
<path opacity="0.7" d="M795.04 859.355C795.04 858.043 795.858 857.387 797.493 857.387C799.129 857.387 799.947 858.043 799.947 859.355C799.947 860.667 799.129 861.323 797.493 861.323C796.676 861.323 795.04 860.667 795.04 859.355Z" fill="white"/>
<path opacity="0.7" d="M999.165 832.11C999.165 830.141 1001.62 828.172 1004.07 828.172C1006.53 828.172 1008.98 830.141 1008.98 832.11C1008.98 834.078 1006.53 836.047 1004.07 836.047C1000.8 836.047 999.165 834.078 999.165 832.11Z" fill="white"/>
<path opacity="0.7" d="M774.029 597.515C774.029 596.859 774.847 596.203 775.664 596.203C776.482 596.203 777.3 596.859 777.3 597.515C777.3 598.171 776.482 598.827 775.664 598.827C774.847 598.827 774.029 598.171 774.029 597.515Z" fill="white"/>
<path opacity="0.7" d="M954.252 535.653C954.252 534.341 955.069 533.685 956.705 533.685C958.341 533.685 959.159 534.341 959.159 535.653C959.159 536.965 958.341 537.621 956.705 537.621C955.069 537.621 954.252 536.965 954.252 535.653Z" fill="white"/>
<path opacity="0.7" d="M680.595 917.478C680.595 916.823 681.413 916.167 682.23 916.167C683.048 916.167 683.866 916.823 683.866 917.478C683.866 918.134 683.048 918.79 682.23 918.79C681.413 918.79 680.595 918.134 680.595 917.478Z" fill="white"/>
<path opacity="0.7" d="M710.991 756.605C710.991 754.636 713.444 752.667 715.898 752.667C718.351 752.667 720.805 754.636 720.805 756.605C720.805 758.574 718.351 760.542 715.898 760.542C713.444 760.542 710.991 758.574 710.991 756.605Z" fill="white"/>
<path opacity="0.7" d="M661.235 814.852C661.235 813.539 662.871 812.227 664.507 812.227C666.142 812.227 667.778 813.539 667.778 814.852C667.778 816.164 666.142 817.477 664.507 817.477C662.053 817.477 661.235 816.164 661.235 814.852Z" fill="white"/>
<path opacity="0.7" d="M598.107 913.995C598.107 912.683 599.742 911.371 601.378 911.371C603.014 911.371 604.649 912.683 604.649 913.995C604.649 915.307 603.014 916.619 601.378 916.619C598.924 916.619 598.107 915.307 598.107 913.995Z" fill="white"/>
<path opacity="0.7" d="M636.825 738.882C636.825 737.57 638.461 736.258 640.097 736.258C641.732 736.258 643.368 737.57 643.368 738.882C643.368 740.195 641.732 741.507 640.097 741.507C638.461 741.507 636.825 740.195 636.825 738.882Z" fill="white"/>
<path opacity="0.7" d="M582.167 723.348C582.167 722.036 582.985 721.38 584.62 721.38C586.256 721.38 587.074 722.036 587.074 723.348C587.074 724.661 586.256 725.317 584.62 725.317C583.803 725.317 582.167 724.004 582.167 723.348Z" fill="white"/>
<path opacity="0.7" d="M339.454 788.948C339.454 789.604 338.636 790.26 337.819 790.26C337.001 790.26 336.183 789.604 336.183 788.948C336.183 788.292 337.001 787.635 337.819 787.635C338.636 786.979 339.454 787.635 339.454 788.948Z" fill="white"/>
<path opacity="0.7" d="M512.958 766.192C512.958 766.848 512.141 767.504 511.323 767.504C510.505 767.504 509.687 766.848 509.687 766.192C509.687 765.535 510.505 764.879 511.323 764.879C512.141 764.879 512.958 765.535 512.958 766.192Z" fill="white"/>
<path opacity="0.7" d="M481.741 927.029C481.741 928.998 479.288 930.967 476.834 930.967C474.38 930.967 471.927 928.998 471.927 927.029C471.927 925.061 474.38 923.092 476.834 923.092C479.288 923.092 481.741 925.061 481.741 927.029Z" fill="white"/>
<path opacity="0.7" d="M340.161 876.312C340.161 877.624 338.525 878.937 336.889 878.937C335.253 878.937 333.618 877.624 333.618 876.312C333.618 875 335.253 873.687 336.889 873.687C338.525 873.687 340.161 875 340.161 876.312Z" fill="white"/>
<path opacity="0.7" d="M386.738 669.407C386.738 670.063 385.92 670.719 385.102 670.719C384.285 670.719 383.467 670.063 383.467 669.407C383.467 668.75 384.285 668.094 385.102 668.094C385.92 668.094 386.738 668.75 386.738 669.407Z" fill="white"/>
<path opacity="0.7" d="M363.435 527.697C363.435 529.009 361.8 530.322 360.164 530.322C358.528 530.322 356.893 529.009 356.893 527.697C356.893 526.385 358.528 525.073 360.164 525.073C361.8 525.073 363.435 525.729 363.435 527.697Z" fill="white"/>
<path opacity="0.7" d="M1094.31 927.931C1094.31 928.587 1093.49 929.244 1092.68 929.244C1091.86 929.244 1091.04 928.587 1091.04 927.931C1091.04 927.275 1091.86 926.618 1092.68 926.618C1093.49 926.618 1094.31 927.275 1094.31 927.931Z" fill="white"/>
<path opacity="0.7" d="M482.511 854.187C482.511 855.499 480.875 856.811 479.239 856.811C477.604 856.811 475.968 855.499 475.968 854.187C475.968 852.875 477.604 851.563 479.239 851.563C480.875 851.563 482.511 852.875 482.511 854.187Z" fill="white"/>
<path opacity="0.7" d="M579.23 595.483C579.23 596.795 577.594 598.107 575.958 598.107C574.323 598.107 572.687 596.795 572.687 595.483C572.687 594.171 574.323 592.859 575.958 592.859C578.412 592.859 579.23 594.171 579.23 595.483Z" fill="white"/>
<path opacity="0.7" d="M564.836 663.795C564.836 665.763 562.383 667.732 559.929 667.732C557.476 667.732 555.022 665.763 555.022 663.795C555.022 661.826 557.476 659.857 559.929 659.857C563.201 660.514 564.836 661.826 564.836 663.795Z" fill="white"/>
<path opacity="0.7" d="M7.66578 655.188C7.66578 654.532 8.48359 653.876 9.30142 653.876C10.1193 653.876 10.9372 654.532 10.9372 655.188C10.9372 655.844 10.1193 656.501 9.30142 656.501C8.48359 656.501 7.66578 655.844 7.66578 655.188Z" fill="white"/>
<path opacity="0.7" d="M1230.21 904.355C1230.21 903.699 1231.02 903.043 1231.84 903.043C1232.66 903.043 1233.48 903.699 1233.48 904.355C1233.48 905.011 1232.66 905.667 1231.84 905.667C1231.02 906.323 1230.21 905.667 1230.21 904.355Z" fill="white"/>
<path opacity="0.7" d="M15.629 719.936C15.629 719.28 16.4468 718.624 17.2647 718.624C18.0826 718.624 18.9005 719.28 18.9005 719.936C18.9005 720.592 18.0826 721.248 17.2647 721.248C16.4468 721.248 15.629 720.592 15.629 719.936Z" fill="white"/>
<path opacity="0.7" d="M51.7098 633.463C51.7098 632.151 52.5277 631.495 54.1634 631.495C55.7991 631.495 56.6169 632.151 56.6169 633.463C56.6169 634.775 55.7991 635.431 54.1634 635.431C53.3455 635.431 51.7098 634.775 51.7098 633.463Z" fill="white"/>
<path opacity="0.7" d="M186.179 692.522C186.179 691.21 187.815 689.897 189.45 689.897C191.086 689.897 192.722 691.21 192.722 692.522C192.722 693.835 191.086 695.147 189.45 695.147C187.815 695.147 186.179 693.835 186.179 692.522Z" fill="white"/>
<path opacity="0.7" d="M53.6046 703.24C53.6046 701.927 55.2404 700.615 56.8761 700.615C58.5118 700.615 60.1474 701.927 60.1474 703.24C60.1474 704.552 58.5118 705.865 56.8761 705.865C55.2404 705.865 53.6046 704.552 53.6046 703.24Z" fill="white"/>
<path opacity="0.7" d="M37.4697 895.686C37.4697 895.03 38.2876 894.374 39.1054 894.374C39.9233 894.374 40.7411 895.03 40.7411 895.686C40.7411 896.342 39.9233 896.998 39.1054 896.998C38.2876 897.654 37.4697 896.998 37.4697 895.686Z" fill="white"/>
<path opacity="0.7" d="M78.618 929.66C78.618 929.004 79.4358 928.348 80.2537 928.348C81.0716 928.348 81.8894 929.004 81.8894 929.66C81.8894 930.316 81.0716 930.972 80.2537 930.972C79.4358 930.972 78.618 930.316 78.618 929.66Z" fill="white"/>
<path opacity="0.7" d="M20.6718 779.369C20.6718 778.056 22.3074 776.744 23.9431 776.744C25.5787 776.744 27.2145 778.056 27.2145 779.369C27.2145 780.681 25.5787 781.994 23.9431 781.994C22.3074 781.994 20.6718 780.681 20.6718 779.369Z" fill="white"/>
<path opacity="0.7" d="M73.0719 816.457C73.0719 815.145 74.7075 813.833 76.3432 813.833C77.9789 813.833 79.6147 815.145 79.6147 816.457C79.6147 817.769 77.9789 819.081 76.3432 819.081C74.7075 819.081 73.0719 818.425 73.0719 816.457Z" fill="white"/>
<path opacity="0.7" d="M201.585 866.681C201.585 865.368 203.221 864.056 204.856 864.056C206.492 864.056 208.128 865.368 208.128 866.681C208.128 867.993 206.492 869.305 204.856 869.305C203.221 869.305 201.585 868.649 201.585 866.681Z" fill="white"/>
<path opacity="0.7" d="M113.92 879.299C113.92 877.987 114.737 877.331 116.373 877.331C118.009 877.331 118.827 877.987 118.827 879.299C118.827 880.611 118.009 881.267 116.373 881.267C114.737 881.267 113.92 879.955 113.92 879.299Z" fill="white"/>
<path opacity="0.7" d="M470.822 587.807C470.822 586.495 472.458 585.182 474.094 585.182C475.729 585.182 477.365 586.495 477.365 587.807C477.365 589.12 475.729 590.432 474.094 590.432C472.458 590.432 470.822 589.776 470.822 587.807Z" fill="white"/>
<path opacity="0.7" d="M171.06 501.912C171.06 500.6 171.878 499.943 173.513 499.943C175.149 499.943 175.967 500.6 175.967 501.912C175.967 503.224 175.149 503.88 173.513 503.88C171.878 503.88 171.06 503.224 171.06 501.912Z" fill="white"/>
<path opacity="0.7" d="M674.153 572.322C674.153 570.354 676.607 568.385 679.06 568.385C681.514 568.385 683.968 570.354 683.968 572.322C683.968 574.291 681.514 576.26 679.06 576.26C675.789 575.603 674.153 574.291 674.153 572.322Z" fill="white"/>
<g opacity="0.7">
<path opacity="0.7" d="M563.326 861.074L562.508 847.293L544.515 845.98L561.69 845.324L563.326 830.887L564.962 845.324L582.136 845.98L564.962 847.293L563.326 861.074Z" fill="white"/>
<path opacity="0.7" d="M555.966 852.542L561.691 846.636L555.966 840.074L563.327 845.324L571.506 839.418L564.963 845.98L571.506 852.542L563.327 847.292L555.966 852.542Z" fill="white"/>
</g>
<g opacity="0.7">
<path opacity="0.7" d="M746.83 897.238L745.194 883.457L728.019 882.145L745.194 881.488L746.83 867.051L748.465 881.488L765.64 882.145L748.465 883.457L746.83 897.238Z" fill="white"/>
<path opacity="0.7" d="M739.47 888.707L745.195 882.144L739.47 876.238L746.831 880.832L755.009 875.582L747.649 882.144L755.009 888.051L746.831 883.457L739.47 888.707Z" fill="white"/>
</g>
<g opacity="0.7">
<path opacity="0.7" d="M652.255 530.407L651.437 521.219L639.17 519.907H651.437L652.255 509.407L653.073 519.907H665.341L653.073 521.219L652.255 530.407Z" fill="white"/>
<path opacity="0.7" d="M647.346 524.501L651.435 520.564L647.346 515.97L652.253 519.908L657.978 515.97L653.07 520.564L657.978 524.501L652.253 521.22L647.346 524.501Z" fill="white"/>
</g>
<g opacity="0.7">
<path opacity="0.7" d="M1034.36 928.69L1033.54 919.502L1021.27 918.19H1032.72L1034.36 907.69L1035.18 918.19H1047.44L1035.18 919.502L1034.36 928.69Z" fill="white"/>
<path opacity="0.7" d="M1028.63 922.784L1032.72 918.847L1028.63 914.253L1034.36 917.535L1040.08 914.253L1035.17 918.191L1040.08 922.784L1034.36 919.503L1028.63 922.784Z" fill="white"/>
</g>
<g opacity="0.7">
<path opacity="0.7" d="M274.153 906.454L273.335 897.267L261.068 895.954H273.335L274.153 885.455L274.971 895.954H287.239L274.971 897.267L274.153 906.454Z" fill="white"/>
<path opacity="0.7" d="M268.426 900.549L273.333 896.611L268.426 892.017L274.15 895.299L279.875 892.017L274.968 895.955L279.875 900.549L274.15 897.267L268.426 900.549Z" fill="white"/>
</g>
<g opacity="0.7">
<path opacity="0.7" d="M81.1696 668.784L80.3518 658.94L68.0842 658.284L80.3518 657.628L81.1696 647.784L81.9875 657.628L94.2551 658.284L81.9875 658.94L81.1696 668.784Z" fill="white"/>
<path opacity="0.7" d="M76.2599 662.878L80.3492 658.285L76.2599 653.691L81.1669 657.628L86.8919 653.691L81.9848 658.285L86.8919 662.222L81.1669 658.941L76.2599 662.878Z" fill="white"/>
</g>
<g opacity="0.7">
<path opacity="0.7" d="M258.375 615.301L257.558 605.457L245.29 604.801L257.558 604.145L258.375 594.301L259.193 604.145L271.461 604.801L259.193 605.457L258.375 615.301Z" fill="white"/>
<path opacity="0.7" d="M253.466 609.395L257.555 604.801L253.466 600.208L258.373 604.145L264.098 600.208L259.19 604.801L264.098 608.739L258.373 605.458L253.466 609.395Z" fill="white"/>
</g>
<path opacity="0.7" d="M1172.55 449.926C1172.55 448.614 1173.37 447.958 1175 447.958C1176.64 447.958 1177.46 448.614 1177.46 449.926C1177.46 451.238 1176.64 451.894 1175 451.894C1174.19 451.894 1172.55 451.238 1172.55 449.926Z" fill="white"/>
<path opacity="0.7" d="M1072.09 445.563C1072.09 444.907 1072.91 444.251 1073.73 444.251C1074.55 444.251 1075.36 444.907 1075.36 445.563C1075.36 446.219 1074.55 446.875 1073.73 446.875C1072.91 447.531 1072.09 446.875 1072.09 445.563Z" fill="white"/>
<path opacity="0.7" d="M140.346 379.791C140.346 379.135 141.163 378.479 141.981 378.479C142.799 378.479 143.617 379.135 143.617 379.791C143.617 380.447 142.799 381.103 141.981 381.103C141.163 381.103 140.346 380.447 140.346 379.791Z" fill="white"/>
<path opacity="0.7" d="M1051.86 478.864C1051.86 478.208 1052.68 477.551 1053.49 477.551C1054.31 477.551 1055.13 478.208 1055.13 478.864C1055.13 479.52 1054.31 480.177 1053.49 480.177C1052.68 480.177 1051.86 479.52 1051.86 478.864Z" fill="white"/>
<path opacity="0.7" d="M973.894 395.401C973.894 394.088 975.53 392.776 977.166 392.776C978.802 392.776 980.437 394.088 980.437 395.401C980.437 396.713 978.802 398.025 977.166 398.025C974.712 398.025 973.894 396.713 973.894 395.401Z" fill="white"/>
<path opacity="0.7" d="M1270.45 504.781C1270.45 503.468 1272.08 502.156 1273.72 502.156C1275.35 502.156 1276.99 503.468 1276.99 504.781C1276.99 506.093 1275.35 507.406 1273.72 507.406C1272.08 507.406 1270.45 506.093 1270.45 504.781Z" fill="white"/>
<path opacity="0.7" d="M1201 416.287C1201 415.631 1201.81 414.975 1202.63 414.975C1203.45 414.975 1204.27 415.631 1204.27 416.287C1204.27 416.943 1203.45 417.599 1202.63 417.599C1201.81 418.255 1201 417.599 1201 416.287Z" fill="white"/>
<path opacity="0.7" d="M309.022 417.288C309.022 416.632 309.839 415.976 310.657 415.976C311.475 415.976 312.293 416.632 312.293 417.288C312.293 417.944 311.475 418.6 310.657 418.6C309.839 418.6 309.022 417.944 309.022 417.288Z" fill="white"/>
<path opacity="0.7" d="M354.959 465.34C354.959 464.027 356.594 462.715 358.23 462.715C359.866 462.715 361.502 464.027 361.502 465.34C361.502 466.652 359.866 467.965 358.23 467.965C356.594 467.965 354.959 466.652 354.959 465.34Z" fill="white"/>
<path opacity="0.7" d="M435.401 487.207C435.401 485.895 437.037 484.583 438.673 484.583C440.308 484.583 441.944 485.895 441.944 487.207C441.944 488.52 440.308 489.832 438.673 489.832C437.037 489.832 435.401 488.52 435.401 487.207Z" fill="white"/>
<path opacity="0.7" d="M484.695 386.74C484.695 386.084 485.512 385.428 486.33 385.428C487.148 385.428 487.966 386.084 487.966 386.74C487.966 387.396 487.148 388.052 486.33 388.052C485.512 388.052 484.695 387.396 484.695 386.74Z" fill="white"/>
<path opacity="0.7" d="M734.078 429.827C734.078 427.858 736.532 425.89 738.985 425.89C741.439 425.89 743.892 427.858 743.892 429.827C743.892 431.796 741.439 433.764 738.985 433.764C736.532 433.108 734.078 431.796 734.078 429.827Z" fill="white"/>
<path opacity="0.7" d="M790.857 438.047C790.857 437.392 791.675 436.736 792.493 436.736C793.311 436.736 794.129 437.392 794.129 438.047C794.129 438.703 793.311 439.359 792.493 439.359C791.675 439.359 790.857 438.703 790.857 438.047Z" fill="white"/>
<path opacity="0.7" d="M885.118 363.248C885.118 362.591 885.936 361.935 886.754 361.935C887.572 361.935 888.389 362.591 888.389 363.248C888.389 363.904 887.572 364.56 886.754 364.56C885.936 365.216 885.118 364.56 885.118 363.248Z" fill="white"/>
<path opacity="0.7" d="M617.387 460.147C617.387 459.491 618.205 458.835 619.023 458.835C619.84 458.835 620.658 459.491 620.658 460.147C620.658 460.803 619.84 461.459 619.023 461.459C618.205 461.459 617.387 460.803 617.387 460.147Z" fill="white"/>
<path opacity="0.7" d="M798.821 502.794C798.821 502.138 799.638 501.482 800.456 501.482C801.274 501.482 802.092 502.138 802.092 502.794C802.092 503.45 801.274 504.106 800.456 504.106C799.638 504.106 798.821 503.45 798.821 502.794Z" fill="white"/>
<path opacity="0.7" d="M1005.21 441.438C1005.21 440.125 1006.85 438.813 1008.49 438.813C1010.12 438.813 1011.76 440.125 1011.76 441.438C1011.76 442.75 1010.12 444.063 1008.49 444.063C1006.85 444.063 1005.21 442.75 1005.21 441.438Z" fill="white"/>
<path opacity="0.7" d="M969.371 475.38C969.371 474.068 971.006 472.756 972.642 472.756C974.278 472.756 975.913 474.068 975.913 475.38C975.913 476.693 974.278 478.005 972.642 478.005C971.006 478.005 969.371 476.693 969.371 475.38Z" fill="white"/>
<path opacity="0.7" d="M836.796 486.099C836.796 484.787 838.432 483.475 840.067 483.475C841.703 483.475 843.339 484.787 843.339 486.099C843.339 487.411 841.703 488.723 840.067 488.723C838.432 488.723 836.796 487.411 836.796 486.099Z" fill="white"/>
<path opacity="0.7" d="M676.929 378.076C676.929 376.108 679.383 374.139 681.837 374.139C684.29 374.139 686.744 376.108 686.744 378.076C686.744 380.045 684.29 382.014 681.837 382.014C678.565 382.014 676.929 380.701 676.929 378.076Z" fill="white"/>
<path opacity="0.7" d="M710.991 505.722C710.991 503.753 713.444 501.784 715.898 501.784C718.351 501.784 720.805 503.753 720.805 505.722C720.805 507.69 718.351 509.659 715.898 509.659C713.444 509.659 710.991 507.69 710.991 505.722Z" fill="white"/>
<path opacity="0.7" d="M636.825 487.999C636.825 486.687 638.461 485.375 640.097 485.375C641.732 485.375 643.368 486.687 643.368 487.999C643.368 489.311 641.732 490.624 640.097 490.624C638.461 490.624 636.825 489.311 636.825 487.999Z" fill="white"/>
<path opacity="0.7" d="M582.167 472.465C582.167 471.153 582.985 470.497 584.62 470.497C586.256 470.497 587.074 471.153 587.074 472.465C587.074 473.777 586.256 474.433 584.62 474.433C583.803 474.433 582.167 473.121 582.167 472.465Z" fill="white"/>
<path opacity="0.7" d="M512.958 515.308C512.958 515.965 512.141 516.621 511.323 516.621C510.505 516.621 509.687 515.965 509.687 515.308C509.687 514.652 510.505 513.996 511.323 513.996C512.141 513.996 512.958 514.652 512.958 515.308Z" fill="white"/>
<path opacity="0.7" d="M386.738 418.524C386.738 419.18 385.92 419.836 385.102 419.836C384.285 419.836 383.467 419.18 383.467 418.524C383.467 417.868 384.285 417.212 385.102 417.212C385.92 417.212 386.738 417.868 386.738 418.524Z" fill="white"/>
<path opacity="0.7" d="M564.836 412.912C564.836 414.88 562.383 416.849 559.929 416.849C557.476 416.849 555.022 414.88 555.022 412.912C555.022 410.943 557.476 408.974 559.929 408.974C563.201 409.63 564.836 410.943 564.836 412.912Z" fill="white"/>
<path opacity="0.7" d="M7.66578 404.305C7.66578 403.649 8.48359 402.993 9.30142 402.993C10.1193 402.993 10.9372 403.649 10.9372 404.305C10.9372 404.961 10.1193 405.617 9.30142 405.617C8.48359 405.617 7.66578 404.961 7.66578 404.305Z" fill="white"/>
<path opacity="0.7" d="M15.629 469.052C15.629 468.396 16.4468 467.74 17.2647 467.74C18.0826 467.74 18.9005 468.396 18.9005 469.052C18.9005 469.708 18.0826 470.364 17.2647 470.364C16.4468 470.364 15.629 469.708 15.629 469.052Z" fill="white"/>
<path opacity="0.7" d="M51.7098 382.58C51.7098 381.268 52.5277 380.612 54.1634 380.612C55.7991 380.612 56.6169 381.268 56.6169 382.58C56.6169 383.892 55.7991 384.548 54.1634 384.548C53.3455 384.548 51.7098 383.892 51.7098 382.58Z" fill="white"/>
<path opacity="0.7" d="M186.179 441.64C186.179 440.328 187.815 439.015 189.45 439.015C191.086 439.015 192.722 440.328 192.722 441.64C192.722 442.952 191.086 444.264 189.45 444.264C187.815 444.264 186.179 442.952 186.179 441.64Z" fill="white"/>
<path opacity="0.7" d="M53.6046 452.357C53.6046 451.044 55.2404 449.732 56.8761 449.732C58.5118 449.732 60.1474 451.044 60.1474 452.357C60.1474 453.669 58.5118 454.982 56.8761 454.982C55.2404 454.982 53.6046 453.669 53.6046 452.357Z" fill="white"/>
<g opacity="0.7">
<path opacity="0.7" d="M81.1696 417.901L80.3518 408.057L68.0842 407.401L80.3518 406.745L81.1696 396.901L81.9875 406.745L94.2551 407.401L81.9875 408.057L81.1696 417.901Z" fill="white"/>
<path opacity="0.7" d="M76.2599 411.995L80.3492 407.401L76.2599 402.808L81.1669 406.745L86.8919 402.808L81.9848 407.401L86.8919 411.339L81.1669 408.058L76.2599 411.995Z" fill="white"/>
</g>
<g opacity="0.7">
<path opacity="0.7" d="M258.375 364.417L257.558 354.574L245.29 353.918L257.558 353.261L258.375 343.418L259.193 353.261L271.461 353.918L259.193 354.574L258.375 364.417Z" fill="white"/>
<path opacity="0.7" d="M253.466 358.512L257.555 353.918L253.466 349.325L258.373 353.262L264.098 349.325L259.19 353.918L264.098 357.856L258.373 354.574L253.466 358.512Z" fill="white"/>
</g>
<g opacity="0.7">
<path opacity="0.7" d="M166.729 871.595L165.094 862.408L153.644 861.095H165.094L166.729 850.595L167.547 861.095H179.815L167.547 862.408L166.729 871.595Z" fill="white"/>
<path opacity="0.7" d="M161.002 865.689L165.091 861.752L161.002 857.158L165.909 860.439L172.451 857.158L167.544 861.096L172.451 865.689L166.727 862.408L161.002 865.689Z" fill="white"/>
</g>
</g>
<defs>
<filter id="filter0_d_34_77" x="-401" y="-107" width="2204.66" height="1047.05" filterUnits="userSpaceOnUse" color-interpolation-filters="sRGB">
<feFlood flood-opacity="0" result="BackgroundImageFix"/>
<feColorMatrix in="SourceAlpha" type="matrix" values="0 0 0 0 0 0 0 0 0 0 0 0 0 0 0 0 0 0 127 0" result="hardAlpha"/>
<feOffset dy="4"/>
<feGaussianBlur stdDeviation="2"/>
<feComposite in2="hardAlpha" operator="out"/>
<feColorMatrix type="matrix" values="0 0 0 0 0 0 0 0 0 0 0 0 0 0 0 0 0 0 0.25 0"/>
<feBlend mode="normal" in2="BackgroundImageFix" result="effect1_dropShadow_34_77"/>
<feBlend mode="normal" in="SourceGraphic" in2="effect1_dropShadow_34_77" result="shape"/>
</filter>
</defs>
</svg>
