<svg width="46" height="41" viewBox="0 0 46 41" fill="none" xmlns="http://www.w3.org/2000/svg">
<path d="M3.03523 27.9251C13.9556 19.2256 21.2485 13.4653 24.9138 10.6442C35.3792 2.5894 37.5986 1.08264 39.1861 0.626814C39.5354 0.526926 40.3431 0.40368 40.9618 0.679844C41.4841 0.91303 41.7282 1.3517 41.8731 1.66666C42.0181 1.98161 42.2899 2.7147 42.3914 3.31724C43.5501 10.1945 45.149 27.2087 45.7566 35.0962C46.0137 38.4337 45.1286 39.813 44.0232 40.221C41.6211 41.1076 39.254 39.7544 36.4496 38.8299C32.0612 37.3832 29.5443 36.4251 25.2813 35.0082C20.3546 33.3708 22.6627 31.1269 24.3849 28.0089C24.8356 27.193 33.0424 14.4149 33.0125 13.4633C33.0088 13.3442 32.9213 12.9203 32.6143 12.7663C32.3073 12.6123 31.9614 12.7858 31.7134 12.9165C31.3618 13.1018 26.4548 18.641 16.9924 29.5341C15.6112 31.1499 14.2298 32.127 12.8483 32.4654C11.3252 32.8384 8.19166 32.7954 5.8376 32.6717C2.95026 32.5201 0.717017 32.6292 0.50795 31.1137C0.399056 30.3243 1.24148 29.2615 3.03523 27.9251Z" fill="white"/>
</svg>
