<svg width="48" height="39" viewBox="0 0 48 39" fill="none" xmlns="http://www.w3.org/2000/svg">
<path d="M48 4.98032C46.2 5.85724 44.4 6.14955 42.3 6.44186C44.4 5.27263 45.9 3.51878 46.5 1.18032C44.7 2.34955 42.6 2.93416 40.2 3.51878C38.4 1.76493 35.7 0.595703 33 0.595703C26.7 0.595703 21.9 6.44186 23.4 12.288C15.3 11.9957 8.1 8.1957 3 2.34955C0.3 6.73417 1.8 12.288 6 15.2111C4.5 15.2111 3 14.6265 1.5 14.0419C1.5 18.4265 4.8 22.5188 9.3 23.688C7.8 23.9803 6.3 24.2726 4.8 23.9803C6 27.7803 9.6 30.7034 14.1 30.7034C10.5 33.3342 5.1 34.7957 0 34.2111C4.5 36.8419 9.6 38.5957 15 38.5957C33.3 38.5957 43.5 23.688 42.9 9.94955C45 8.78032 46.8 7.02647 48 4.98032Z" fill="white"/>
</svg>
